<svg xmlns="http://www.w3.org/2000/svg" viewBox="0 0 1320 436" role="img" aria-labelledby="hero-title hero-desc">
<title id="hero-title">EpiNet evaluation architecture</title>
<desc id="hero-desc">Data becomes a graph and feature space; splitting with baselines and a permutation null feeds two parallel paths — calibration and performance, and contestability — which join in a model card with provenance.</desc>
<rect x="0.5" y="0.5" width="1319" height="435" rx="12" fill="#faf9fc" stroke="#e7e3f0"/>
<text x="48" y="66" font-family="ui-monospace, 'SF Mono', SFMono-Regular, Menlo, Consolas, monospace" font-size="12.5" letter-spacing="2.5" fill="#5b5570">GRAPH-SHAPED EVALUATION · RESEARCH DEMONSTRATOR</text>
<text x="48" y="104" font-family="ui-sans-serif, system-ui, -apple-system, 'Segoe UI', 'Helvetica Neue', Arial, sans-serif" font-size="30" font-weight="700" letter-spacing="-0.3" fill="#1c1830">Evaluate graph-shaped models without hiding failure</text>
<text x="1272" y="66" text-anchor="end" font-family="ui-monospace, 'SF Mono', SFMono-Regular, Menlo, Consolas, monospace" font-size="13" letter-spacing="3" fill="#6F52B8">VAHTIAN</text>
<rect x="48.0" y="180.0" width="90.4" height="64" rx="8" fill="#ffffff" stroke="#7A5CC0" stroke-width="1.5"/>
<text x="93.2" y="217.5" text-anchor="middle" font-family="ui-sans-serif, system-ui, -apple-system, 'Segoe UI', 'Helvetica Neue', Arial, sans-serif" font-size="16" font-weight="700" fill="#1c1830">Data</text>
<line x1="142.4" y1="212" x2="224.0" y2="212" stroke="#7A5CC0" stroke-width="1.8"/><path d="M 224.0 207 L 232.0 212 L 224.0 217 Z" fill="#7A5CC0"/>
<rect x="233.0" y="180.0" width="176.8" height="64" rx="8" fill="#ffffff" stroke="#7A5CC0" stroke-width="1.5"/>
<text x="321.4" y="207.0" text-anchor="middle" font-family="ui-sans-serif, system-ui, -apple-system, 'Segoe UI', 'Helvetica Neue', Arial, sans-serif" font-size="16" font-weight="700" fill="#1c1830">Graph /</text>
<text x="321.4" y="228.0" text-anchor="middle" font-family="ui-sans-serif, system-ui, -apple-system, 'Segoe UI', 'Helvetica Neue', Arial, sans-serif" font-size="16" font-weight="700" fill="#1c1830">feature space</text>
<line x1="413.8" y1="212" x2="495.4" y2="212" stroke="#7A5CC0" stroke-width="1.8"/><path d="M 495.4 207 L 503.4 212 L 495.4 217 Z" fill="#7A5CC0"/>
<rect x="504.4" y="180.0" width="224.8" height="64" rx="8" fill="#ffffff" stroke="#7A5CC0" stroke-width="1.5"/>
<text x="616.8" y="207.0" text-anchor="middle" font-family="ui-sans-serif, system-ui, -apple-system, 'Segoe UI', 'Helvetica Neue', Arial, sans-serif" font-size="16" font-weight="700" fill="#1c1830">Split + baseline</text>
<text x="616.8" y="228.0" text-anchor="middle" font-family="ui-sans-serif, system-ui, -apple-system, 'Segoe UI', 'Helvetica Neue', Arial, sans-serif" font-size="16" font-weight="700" fill="#1c1830">+ permutation null</text>
<path d="M 733.2 212 L 776.5 212 L 776.5 160.0 L 814.8 160.0" fill="none" stroke="#7A5CC0" stroke-width="1.8"/><path d="M 814.8 155.0 L 822.8 160.0 L 814.8 165.0 Z" fill="#7A5CC0"/>
<path d="M 733.2 212 L 776.5 212 L 776.5 264.0 L 814.8 264.0" fill="none" stroke="#7A5CC0" stroke-width="1.8"/><path d="M 814.8 259.0 L 822.8 264.0 L 814.8 269.0 Z" fill="#7A5CC0"/>
<rect x="823.8" y="128" width="186.4" height="64" rx="8" fill="#ffffff" stroke="#7A5CC0" stroke-width="1.5"/>
<text x="917.0" y="155.0" text-anchor="middle" font-family="ui-sans-serif, system-ui, -apple-system, 'Segoe UI', 'Helvetica Neue', Arial, sans-serif" font-size="16" font-weight="700" fill="#1c1830">Calibration +</text>
<text x="917.0" y="176.0" text-anchor="middle" font-family="ui-sans-serif, system-ui, -apple-system, 'Segoe UI', 'Helvetica Neue', Arial, sans-serif" font-size="16" font-weight="700" fill="#1c1830">performance</text>
<rect x="823.8" y="232" width="186.4" height="64" rx="8" fill="#A2C05C" stroke="#5F7A28" stroke-width="1.5"/>
<text x="917.0" y="269.5" text-anchor="middle" font-family="ui-sans-serif, system-ui, -apple-system, 'Segoe UI', 'Helvetica Neue', Arial, sans-serif" font-size="16" font-weight="700" fill="#1c1830">Contestability</text>
<text x="917.0" y="313.0" text-anchor="middle" font-family="ui-monospace, 'SF Mono', SFMono-Regular, Menlo, Consolas, monospace" font-size="11" letter-spacing="1.5" fill="#5b5570">YOU DECIDE</text>
<path d="M 1014.2 160.0 L 1057.5 160.0 L 1057.5 212 L 1095.8 212" fill="none" stroke="#7A5CC0" stroke-width="1.8"/><path d="M 1095.8 207 L 1103.8 212 L 1095.8 217 Z" fill="#7A5CC0"/>
<path d="M 1014.2 264.0 L 1057.5 264.0 L 1057.5 212 L 1095.8 212" fill="none" stroke="#7A5CC0" stroke-width="1.8"/><path d="M 1095.8 207 L 1103.8 212 L 1095.8 217 Z" fill="#7A5CC0"/>
<rect x="1104.8" y="180.0" width="167.2" height="64" rx="8" fill="#ffffff" stroke="#7A5CC0" stroke-width="1.5"/>
<text x="1188.4" y="207.0" text-anchor="middle" font-family="ui-sans-serif, system-ui, -apple-system, 'Segoe UI', 'Helvetica Neue', Arial, sans-serif" font-size="16" font-weight="700" fill="#1c1830">Model card +</text>
<text x="1188.4" y="228.0" text-anchor="middle" font-family="ui-sans-serif, system-ui, -apple-system, 'Segoe UI', 'Helvetica Neue', Arial, sans-serif" font-size="16" font-weight="700" fill="#1c1830">provenance</text>
<line x1="52" y1="356" x2="1268" y2="356" stroke="#8f88a3" stroke-width="1"/>
<rect x="201.0" y="353" width="6" height="6" rx="1.5" fill="#A2C05C" stroke="#5F7A28" stroke-width="1"/>
<text x="204.0" y="380" text-anchor="middle" font-family="ui-monospace, 'SF Mono', SFMono-Regular, Menlo, Consolas, monospace" font-size="12.5" fill="#5b5570">Local CSVs</text>
<rect x="505.0" y="353" width="6" height="6" rx="1.5" fill="#A2C05C" stroke="#5F7A28" stroke-width="1"/>
<text x="508.0" y="380" text-anchor="middle" font-family="ui-monospace, 'SF Mono', SFMono-Regular, Menlo, Consolas, monospace" font-size="12.5" fill="#5b5570">Label-permutation null</text>
<rect x="809.0" y="353" width="6" height="6" rx="1.5" fill="#A2C05C" stroke="#5F7A28" stroke-width="1"/>
<text x="812.0" y="380" text-anchor="middle" font-family="ui-monospace, 'SF Mono', SFMono-Regular, Menlo, Consolas, monospace" font-size="12.5" fill="#5b5570">Caveats in every report</text>
<rect x="1113.0" y="353" width="6" height="6" rx="1.5" fill="#A2C05C" stroke="#5F7A28" stroke-width="1"/>
<text x="1116.0" y="380" text-anchor="middle" font-family="ui-monospace, 'SF Mono', SFMono-Regular, Menlo, Consolas, monospace" font-size="12.5" fill="#5b5570">Provenance</text>
</svg>
